<mxfile host="app.diagrams.net" modified="2023-06-15T01:48:37.010Z" agent="Mozilla/5.0 (Windows NT 10.0; Win64; x64) AppleWebKit/537.36 (KHTML, like Gecko) Chrome/115.0.0.0 Safari/537.36 Edg/115.0.0.0" version="21.4.0" etag="e69g4-Bh2POOVpYI-1BW" type="github">
  <diagram name="第 1 页" id="zvz53RpToCsZODWTJZ3q">
    <mxGraphModel>
      <root>
        <mxCell id="0" />
        <mxCell id="1" parent="0" />
      </root>
    </mxGraphModel>
  </diagram>
</mxfile>
